<?xml version="1.0" standalone="no"?>
<!DOCTYPE svg PUBLIC "-//W3C//DTD SVG 20010904//EN"
 "http://www.w3.org/TR/2001/REC-SVG-20010904/DTD/svg10.dtd">
<svg version="1.0" xmlns="http://www.w3.org/2000/svg"
 width="431.000000pt" height="374.000000pt" viewBox="0 0 431.000000 374.000000"
 preserveAspectRatio="xMidYMid meet">

<g transform="translate(0.000000,374.000000) scale(0.100000,-0.100000)"
fill="#000000" stroke="none">
<path d="M2015 3669 c-135 -17 -322 -89 -442 -170 -178 -121 -323 -315 -397
-532 -33 -96 -59 -277 -54 -379 l3 -78 -261 0 c-144 0 -276 -3 -293 -6 -17 -4
-49 -23 -72 -43 -51 -46 -61 -84 -88 -336 -12 -104 -26 -224 -31 -265 -9 -68
-53 -449 -80 -690 -6 -52 -20 -162 -30 -245 -11 -82 -24 -199 -30 -260 -6 -60
-20 -182 -31 -270 -11 -88 -18 -177 -16 -198 8 -58 51 -113 111 -140 l51 -23
1841 0 1841 1 48 30 c32 20 57 46 73 75 22 41 24 53 18 140 -3 52 -14 163 -25
245 -23 168 -53 402 -81 635 -23 191 -52 425 -85 675 -14 105 -34 267 -46 360
-24 196 -41 243 -102 283 l-40 27 -279 3 -278 3 0 92 c-1 193 -41 365 -122
517 -213 400 -629 607 -1103 549z m327 -314 c152 -31 334 -147 432 -274 104
-135 154 -276 163 -458 l6 -113 -763 0 -763 0 6 108 c12 219 76 376 212 521
99 106 222 178 360 212 89 22 250 24 347 4z"/>
</g>
</svg>
